<svg width="49" height="48" viewBox="0 0 49 48" fill="none" xmlns="http://www.w3.org/2000/svg">
<path d="M16.0405 27H32.0405M16.0405 17H24.0405" stroke="white" stroke-width="3" stroke-linecap="round" stroke-linejoin="round"/>
<path d="M12.2381 38C9.63793 37.7442 7.69003 36.9632 6.38367 35.6568C4.04053 33.3138 4.04053 29.5424 4.04053 22V21C4.04053 13.4575 4.04053 9.6863 6.38367 7.34314C8.72683 5 12.498 5 20.0405 5H28.0405C35.5829 5 39.3543 5 41.6973 7.34314C44.0405 9.6863 44.0405 13.4575 44.0405 21V22C44.0405 29.5424 44.0405 33.3138 41.6973 35.6568C39.3543 38 35.5829 38 28.0405 38C26.9195 38.025 26.0267 38.1102 25.1497 38.31C22.7529 38.8618 20.5335 40.0882 18.3403 41.1578C15.2151 42.6816 13.6525 43.4436 12.6719 42.7302C10.7959 41.333 12.6296 37.0038 13.0405 35" stroke="white" stroke-width="3" stroke-linecap="round"/>
</svg>
