<svg width="49" height="48" viewBox="0 0 49 48" fill="none" xmlns="http://www.w3.org/2000/svg">
<path d="M34.9957 18.0221C35.0105 18.022 35.0255 18.022 35.0405 18.022C40.0111 18.022 44.0405 22.0588 44.0405 27.0386C44.0405 31.6796 40.5405 35.5016 36.0405 36M34.9957 18.0221C35.0253 17.6921 35.0405 17.3579 35.0405 17.0202C35.0405 10.9339 30.1157 6 24.0405 6C18.287 6 13.5652 10.4253 13.0814 16.0638M34.9957 18.0221C34.7911 20.2952 33.8977 22.3692 32.5261 24.033M13.0814 16.0638C8.00849 16.5475 4.04053 20.8278 4.04053 26.0366C4.04053 30.8834 7.47605 34.9264 12.0405 35.8546M13.0814 16.0638C13.397 16.0337 13.717 16.0183 14.0405 16.0183C16.2922 16.0183 18.37 16.7639 20.0415 18.022" stroke="white" stroke-width="3" stroke-linecap="round" stroke-linejoin="round"/>
<path d="M24.0405 26V42M24.0405 26C22.6401 26 20.0236 29.9886 19.0405 31M24.0405 26C25.4409 26 28.0575 29.9886 29.0405 31" stroke="white" stroke-width="3" stroke-linecap="round" stroke-linejoin="round"/>
</svg>
