<svg width="49" height="48" viewBox="0 0 49 48" fill="none" xmlns="http://www.w3.org/2000/svg">
<path d="M24.0405 34C28.4588 34 32.0405 30.4183 32.0405 26C32.0405 21.5817 28.4588 18 24.0405 18C19.6222 18 16.0405 21.5817 16.0405 26C16.0405 30.4183 19.6222 34 24.0405 34Z" stroke="white" stroke-width="1.5" stroke-linecap="round" stroke-linejoin="round"/>
<path d="M24.0405 12C26.2497 12 28.0405 10.2091 28.0405 8C28.0405 5.79086 26.2497 4 24.0405 4C21.8314 4 20.0405 5.79086 20.0405 8C20.0405 10.2091 21.8314 12 24.0405 12Z" stroke="white" stroke-width="1.5" stroke-linecap="round" stroke-linejoin="round"/>
<path d="M8.04053 44C10.2497 44 12.0405 42.2091 12.0405 40C12.0405 37.7909 10.2497 36 8.04053 36C5.83139 36 4.04053 37.7909 4.04053 40C4.04053 42.2091 5.83139 44 8.04053 44Z" stroke="white" stroke-width="1.5" stroke-linecap="round" stroke-linejoin="round"/>
<path d="M40.0405 44C42.2497 44 44.0405 42.2091 44.0405 40C44.0405 37.7909 42.2497 36 40.0405 36C37.8314 36 36.0405 37.7909 36.0405 40C36.0405 42.2091 37.8314 44 40.0405 44Z" stroke="white" stroke-width="1.5" stroke-linecap="round" stroke-linejoin="round"/>
<path d="M24.0405 18V12M37.0405 37L30.0405 32M11.0405 37L18.0405 32" stroke="white" stroke-width="1.5" stroke-linecap="round" stroke-linejoin="round"/>
</svg>
