<svg width="49" height="48" viewBox="0 0 49 48" fill="none" xmlns="http://www.w3.org/2000/svg">
<path d="M41.9259 33.6708C40.6133 25.7732 36.5269 19.8923 32.9745 16.438C31.9407 15.4328 31.4239 14.9303 30.2821 14.4651C29.1403 14 28.1589 14 26.1961 14H21.8849C19.9221 14 18.9407 14 17.799 14.4651C16.6572 14.9303 16.1403 15.4328 15.1066 16.438C11.5542 19.8923 7.46774 25.7732 6.15506 33.6708C5.17838 39.5468 10.5991 44 16.6572 44H31.4239C37.4819 44 42.9027 39.5468 41.9259 33.6708Z" stroke="white" stroke-width="3" stroke-linecap="round" stroke-linejoin="round"/>
<path d="M14.5538 8.88574C14.1411 8.28516 13.5431 7.46998 14.7785 7.2841C16.0484 7.09302 17.3669 7.96228 18.6576 7.94442C19.8253 7.92826 20.4201 7.41038 21.0583 6.67096C21.7303 5.89234 22.7709 4 24.0405 4C25.3101 4 26.3507 5.89234 27.0227 6.67096C27.6609 7.41038 28.2557 7.92826 29.4233 7.94442C30.7141 7.96228 32.0327 7.09302 33.3025 7.2841C34.5379 7.46998 33.9399 8.28516 33.5273 8.88574L31.6615 11.6013C30.8635 12.7629 30.4645 13.3437 29.6293 13.6719C28.7943 14 27.7151 14 25.5569 14H22.5241C20.3659 14 19.2867 14 18.4516 13.6719C17.6166 13.3437 17.2175 12.7629 16.4194 11.6013L14.5538 8.88574Z" stroke="white" stroke-width="3" stroke-linejoin="round"/>
<path d="M27.2939 25.8372C26.8615 24.241 24.6607 22.8006 22.0189 23.8782C19.3771 24.9556 18.9575 28.4226 22.9535 28.791C24.7595 28.9574 25.9371 28.5978 27.0151 29.6152C28.0933 30.6324 28.2935 33.4616 25.5375 34.224C22.7815 34.9864 20.0525 33.7952 19.7554 32.1034M23.7239 21.9854V23.5062M23.7239 34.4586V35.9854" stroke="white" stroke-width="3" stroke-linecap="round" stroke-linejoin="round"/>
</svg>
