<svg width="256" height="256" viewBox="0 0 256 256" fill="none" xmlns="http://www.w3.org/2000/svg">
<path fill-rule="evenodd" clip-rule="evenodd" d="M128 240C189.856 240 240 189.856 240 128C240 66.1441 189.856 16 128 16C66.1441 16 16 66.1441 16 128C16 189.856 66.1441 240 128 240ZM128 256C198.692 256 256 198.692 256 128C256 57.3075 198.692 0 128 0C57.3075 0 0 57.3075 0 128C0 198.692 57.3075 256 128 256ZM80 107.785L117.603 137.39C123.409 141.961 131.591 141.961 137.397 137.39L176 106.998V159C176 163.418 172.418 167 168 167H88C83.5817 167 80 163.418 80 159V107.785ZM80.0093 97.6108L122.551 131.104C125.455 133.39 129.545 133.39 132.449 131.104L175.922 96.8776C175.376 92.9908 172.037 90 168 90H88C83.7122 90 80.2123 93.3733 80.0093 97.6108Z" fill="white"/>
</svg>
