<svg width="256" height="256" viewBox="0 0 256 256" fill="none" xmlns="http://www.w3.org/2000/svg">
<path fill-rule="evenodd" clip-rule="evenodd" d="M128 240C189.856 240 240 189.856 240 128C240 66.1441 189.856 16 128 16C66.1441 16 16 66.1441 16 128C16 189.856 66.1441 240 128 240ZM128 256C198.692 256 256 198.692 256 128C256 57.3075 198.692 0 128 0C57.3075 0 0 57.3075 0 128C0 198.692 57.3075 256 128 256ZM127.771 188L127.824 188H127.806L127.771 188ZM128.194 188H128.176L128.229 188L128.194 188ZM127.588 187.999L127.645 187.999H127.612L127.588 187.999ZM128.388 187.999H128.355L128.413 187.999L128.388 187.999ZM127.411 187.997L127.449 187.997L127.419 187.997H127.411ZM128.581 187.997L128.551 187.997L128.589 187.997H128.581ZM128.775 187.995L128.761 187.995L128.814 187.995L128.775 187.995ZM127.186 187.995L127.239 187.995L127.225 187.995L127.186 187.995ZM128.968 187.992L128.937 187.993L129.001 187.992L128.968 187.992ZM126.999 187.992L127.063 187.993L127.032 187.992L126.999 187.992ZM129.162 187.989L129.119 187.99L129.178 187.989L129.162 187.989ZM126.822 187.989L126.881 187.99L126.838 187.989L126.822 187.989ZM126.602 187.984L126.655 187.985L126.645 187.985L126.602 187.984ZM129.355 187.985L129.345 187.985L129.398 187.984L129.355 187.985ZM126.409 187.979L126.482 187.981L126.452 187.98L126.409 187.979ZM129.548 187.98L129.518 187.981L129.591 187.979L129.548 187.98ZM129.74 187.975L129.693 187.977L129.767 187.974L129.74 187.975ZM126.233 187.974L126.307 187.977L126.26 187.975L126.233 187.974ZM126.064 187.969L126.117 187.971L126.067 187.969L126.021 187.968L126.064 187.969ZM129.933 187.969L129.883 187.971L129.936 187.969L129.979 187.968L129.933 187.969ZM130.126 187.963L130.099 187.964L130.18 187.961L130.126 187.963ZM125.82 187.961L125.901 187.964L125.874 187.963L125.82 187.961ZM125.644 187.955L125.729 187.958L125.682 187.956L125.644 187.955ZM130.318 187.956L130.271 187.958L130.356 187.955L130.318 187.956ZM125.472 187.948L125.555 187.951L125.49 187.948L125.472 187.948ZM130.51 187.948L130.445 187.951L130.528 187.948L130.51 187.948ZM125.231 187.937L125.32 187.941L125.298 187.94L125.231 187.937ZM130.702 187.94L130.68 187.941L130.769 187.937L130.702 187.94ZM125.057 187.929L125.15 187.933L125.106 187.931L125.057 187.929ZM130.894 187.931L130.85 187.933L130.943 187.929L130.894 187.931ZM124.887 187.92L124.98 187.925L124.914 187.922L124.887 187.92ZM131.086 187.922L131.02 187.925L131.113 187.92L131.086 187.922ZM131.277 187.912L131.192 187.916L131.268 187.912L131.356 187.907L131.277 187.912ZM124.732 187.912L124.808 187.916L124.723 187.912L124.644 187.907L124.732 187.912ZM131.469 187.901L131.431 187.903L131.526 187.898L131.469 187.901ZM124.474 187.898L124.569 187.903L124.531 187.901L124.474 187.898ZM124.305 187.888L124.4 187.893L124.34 187.89L124.305 187.888ZM131.66 187.89L131.6 187.893L131.695 187.888L131.66 187.89ZM124.143 187.878L124.229 187.883L124.149 187.878L124.069 187.873L124.143 187.878ZM131.851 187.878L131.771 187.883L131.857 187.878L131.931 187.873L131.851 187.878ZM132.042 187.866L132.013 187.868L132.104 187.861L132.042 187.866ZM123.896 187.861L123.987 187.868L123.958 187.866L123.896 187.861ZM123.727 187.85L123.816 187.856L123.767 187.853L123.727 187.85ZM132.233 187.853L132.184 187.856L132.273 187.85L132.233 187.853ZM123.559 187.838L123.64 187.844L123.577 187.839L123.559 187.838ZM132.423 187.839L132.36 187.844L132.441 187.838L132.423 187.839ZM123.332 187.821L123.404 187.826L123.386 187.825L123.332 187.821ZM132.614 187.825L132.596 187.826L132.668 187.821L132.614 187.825ZM132.804 187.81L132.77 187.813L132.842 187.807L132.804 187.81ZM123.158 187.807L123.23 187.813L123.196 187.81L123.158 187.807ZM122.988 187.793L123.05 187.798L123.006 187.795L122.988 187.793ZM132.994 187.795L132.95 187.798L133.012 187.793L132.994 187.795ZM122.801 187.777L122.819 187.779L122.816 187.779L122.801 187.777ZM133.184 187.779L133.181 187.779L133.199 187.777L133.184 187.779ZM133.374 187.762L133.357 187.764L133.399 187.76L133.374 187.762ZM122.601 187.76L122.643 187.764L122.626 187.762L122.601 187.76ZM122.425 187.744L122.457 187.747L122.437 187.745L122.425 187.744ZM133.563 187.745L133.543 187.747L133.575 187.744L133.563 187.745ZM118.625 187.27C89.9565 182.764 68 157.926 68 128C68 94.8852 94.8852 68 128 68C161.115 68 188 94.8852 188 128C188 157.926 166.044 182.764 137.375 187.27V145.344H151.355L154.016 128H137.375V116.745C137.375 112 139.7 107.375 147.153 107.375H154.719V92.6094C154.719 92.6094 147.853 91.4375 141.288 91.4375C127.583 91.4375 118.625 99.7438 118.625 114.781V128H103.391V145.344H118.625V187.27Z" fill="white"/>
</svg>
