<svg width="256" height="256" viewBox="0 0 256 256" fill="none" xmlns="http://www.w3.org/2000/svg">
<path fill-rule="evenodd" clip-rule="evenodd" d="M240 128C240 189.856 189.856 240 128 240C66.1441 240 16 189.856 16 128C16 66.1441 66.1441 16 128 16C189.856 16 240 66.1441 240 128ZM256 128C256 198.692 198.692 256 128 256C57.3075 256 0 198.692 0 128C0 57.3075 57.3075 0 128 0C198.692 0 256 57.3075 256 128ZM105.324 73.331C111.19 73.0633 113.063 73 128 73C142.937 73 144.81 73.0633 150.676 73.331C156.531 73.5982 160.529 74.5278 164.027 75.8875C167.644 77.2931 170.711 79.1737 173.769 82.2313C176.826 85.289 178.707 88.3562 180.113 91.9729C181.472 95.4713 182.402 99.4695 182.669 105.324C182.937 111.19 183 113.063 183 128C183 142.937 182.937 144.81 182.669 150.676C182.402 156.531 181.472 160.529 180.113 164.027C178.707 167.644 176.826 170.711 173.769 173.769C170.711 176.826 167.644 178.707 164.027 180.113C160.529 181.472 156.531 182.402 150.676 182.669C144.81 182.937 142.937 183 128 183C113.063 183 111.19 182.937 105.324 182.669C99.4695 182.402 95.4713 181.472 91.9727 180.113C88.356 178.707 85.2887 176.826 82.2311 173.769C79.1735 170.711 77.2929 167.644 75.8873 164.027C74.5276 160.529 73.598 156.531 73.3308 150.676C73.0631 144.81 73 142.937 73 128C73 113.063 73.0631 111.19 73.3308 105.324C73.598 99.4695 74.5276 95.4713 75.8873 91.9729C77.2929 88.3562 79.1735 85.289 82.2311 82.2313C85.2887 79.1737 88.356 77.2931 91.9727 75.8875C95.4713 74.5278 99.4695 73.5982 105.324 73.331ZM150.225 83.2306C144.425 82.966 142.686 82.9101 128 82.9101C113.314 82.9101 111.575 82.966 105.775 83.2306C100.413 83.4753 97.5006 84.3713 95.5626 85.1243C92.9953 86.1221 91.1631 87.3141 89.2384 89.2386C87.3139 91.1631 86.1219 92.9955 85.1243 95.5626C84.3711 97.5006 83.4751 100.413 83.2304 105.775C82.9658 111.575 82.9099 113.314 82.9099 128C82.9099 142.686 82.9658 144.425 83.2304 150.225C83.4751 155.587 84.3711 158.499 85.1243 160.437C86.1219 163.005 87.3139 164.837 89.2384 166.761C91.1631 168.686 92.9953 169.878 95.5626 170.876C97.5006 171.629 100.413 172.525 105.775 172.769C111.574 173.034 113.313 173.09 128 173.09C142.687 173.09 144.426 173.034 150.225 172.769C155.587 172.525 158.499 171.629 160.437 170.876C163.005 169.878 164.837 168.686 166.761 166.761C168.686 164.837 169.878 163.005 170.876 160.437C171.629 158.499 172.525 155.587 172.769 150.225C173.034 144.425 173.09 142.686 173.09 128C173.09 113.314 173.034 111.575 172.769 105.775C172.525 100.413 171.629 97.5006 170.876 95.5626C169.878 92.9955 168.686 91.1631 166.761 89.2386C164.837 87.3141 163.005 86.1221 160.437 85.1243C158.499 84.3713 155.587 83.4753 150.225 83.2306ZM128 146.333C117.875 146.333 109.666 138.125 109.666 128C109.666 117.875 117.875 109.667 128 109.667C138.125 109.667 146.333 117.875 146.333 128C146.333 138.125 138.125 146.333 128 146.333ZM128 99.7568C112.401 99.7568 99.7566 112.402 99.7566 128C99.7566 143.598 112.401 156.243 128 156.243C143.598 156.243 156.243 143.598 156.243 128C156.243 112.402 143.598 99.7568 128 99.7568ZM157.359 105.241C161.004 105.241 163.959 102.286 163.959 98.6409C163.959 94.9958 161.004 92.041 157.359 92.041C153.714 92.041 150.759 94.9958 150.759 98.6409C150.759 102.286 153.714 105.241 157.359 105.241Z" fill="white"/>
</svg>
