<svg width="256" height="256" viewBox="0 0 256 256" fill="none" xmlns="http://www.w3.org/2000/svg">
<path fill-rule="evenodd" clip-rule="evenodd" d="M128 240C189.856 240 240 189.856 240 128C240 66.1441 189.856 16 128 16C66.1441 16 16 66.1441 16 128C16 189.856 66.1441 240 128 240ZM128 256C198.692 256 256 198.692 256 128C256 57.3075 198.692 0 128 0C57.3075 0 0 57.3075 0 128C0 198.692 57.3075 256 128 256ZM183 86.75C183 79.1611 176.839 73 169.25 73H86.75C79.1611 73 73 79.1611 73 86.75V169.25C73 176.839 79.1611 183 86.75 183H169.25C176.839 183 183 176.839 183 169.25V86.75ZM86.1172 111.386H104.542V166.807H86.1172V111.386ZM95.4538 84.662C89.15 84.662 85.0312 88.8063 85.0312 94.2382C85.0312 99.556 89.0248 103.815 95.2099 103.815H95.3289C101.753 103.815 105.752 99.556 105.752 94.2382C105.633 88.8063 101.754 84.662 95.4538 84.662ZM133.157 119.232C135.608 115.457 139.986 110.082 149.759 110.082C161.88 110.082 170.969 118.002 170.969 135.025V166.807H152.548V137.154C152.548 129.707 149.879 124.623 143.216 124.623C138.127 124.623 135.094 128.05 133.764 131.359C133.276 132.543 133.157 134.199 133.157 135.856V166.807H114.737C114.737 166.807 114.981 116.584 114.737 111.386H133.157V119.232Z" fill="white"/>
</svg>
