<svg width="256" height="256" viewBox="0 0 256 256" fill="none" xmlns="http://www.w3.org/2000/svg">
<path fill-rule="evenodd" clip-rule="evenodd" d="M240 128C240 189.856 189.856 240 128 240C66.1441 240 16 189.856 16 128C16 66.1441 66.1441 16 128 16C189.856 16 240 66.1441 240 128ZM256 128C256 198.692 198.692 256 128 256C57.3075 256 0 198.692 0 128C0 57.3075 57.3075 0 128 0C198.692 0 256 57.3075 256 128ZM143.849 134.49C145.1 134.944 151.82 138.23 153.199 138.918L153.24 138.574C153.388 138.64 153.529 138.703 153.666 138.764C154.801 139.269 155.55 139.603 155.853 140.155C156.197 140.774 156.197 143.455 155.028 146.686C153.887 149.918 148.419 152.805 145.788 153.222C143.427 153.561 140.444 153.708 137.171 152.668C136.9 152.574 136.618 152.478 136.325 152.379C134.473 151.749 132.187 150.972 129.361 149.785C116.591 144.284 107.941 132 106.248 129.595C106.122 129.415 106.034 129.291 105.986 129.228C105.954 129.183 105.912 129.125 105.862 129.055C104.85 127.654 100.399 121.488 100.399 115.135C100.399 108.92 103.472 105.631 104.903 104.099C105.008 103.987 105.104 103.884 105.189 103.791C106.445 102.485 107.925 102.145 108.842 102.145C109.758 102.145 110.67 102.145 111.459 102.214C111.542 102.214 111.628 102.211 111.717 102.208C112.529 102.177 113.547 102.138 114.539 104.552C115.041 105.729 115.849 107.686 116.628 109.57C117.624 111.983 118.572 114.276 118.765 114.663C119.104 115.345 119.338 116.102 118.879 117.064C118.785 117.243 118.701 117.407 118.621 117.563C118.301 118.189 118.054 118.674 117.518 119.338C117.341 119.548 117.159 119.768 116.976 119.989C116.45 120.626 115.914 121.275 115.451 121.735C114.768 122.422 114.058 123.178 114.855 124.553C115.662 125.928 118.393 130.397 122.463 134.041C126.836 137.954 130.641 139.603 132.572 140.44C132.948 140.603 133.253 140.735 133.477 140.847C134.838 141.466 135.636 141.397 136.438 140.503C137.231 139.596 139.862 136.53 140.765 135.178C141.681 133.803 142.598 134.027 143.849 134.49ZM128.206 172.688H128.28L128.307 172.692C153.401 172.692 173.824 152.337 173.842 127.386C173.842 115.286 169.103 103.869 160.51 95.3483C151.911 86.7546 140.494 82.0108 128.33 82.0108C103.181 82.0108 82.7625 102.361 82.7625 127.317C82.7625 135.883 85.1733 144.202 89.7108 151.425L90.8063 153.144L86.2 169.85L103.387 165.382L105.037 166.363C112.055 170.488 120.094 172.688 128.206 172.688ZM128.206 73C142.85 73 156.6 78.7063 167.05 88.8079L166.981 88.9867C177.317 99.2808 183 112.98 183 127.537C182.986 157.604 158.415 182.06 128.234 182.06H128.206C119.04 182.047 110.038 179.75 102.035 175.428L73 183L80.7733 154.758C75.9792 146.485 73.4629 137.116 73.4629 127.51C73.4767 97.4475 98.0387 73 128.206 73Z" fill="white"/>
</svg>
